<svg width="370" height="33" viewBox="0 0 370 33" fill="none" xmlns="http://www.w3.org/2000/svg">
<path d="M7.8897 16.5071C10.7866 16.5071 13.8214 16.3386 16.7183 16.1702C17.9598 16.1702 19.0634 16.0017 20.3049 16.0017C25.5469 15.6649 30.7889 15.328 36.0308 14.9911C42.3764 14.6542 48.584 14.1489 54.9295 13.812C63.8961 13.1383 72.8626 12.633 81.8292 11.9592C83.8984 11.7908 85.9676 11.7908 88.0368 11.6223C93.2787 11.2854 98.5207 10.9486 103.763 10.7801C109.005 10.4432 114.247 10.1064 119.489 9.93793C121.558 9.76949 123.627 9.60106 125.696 9.60106C133.973 9.26418 142.388 8.92729 150.665 8.59041C155.769 8.42197 160.873 8.25354 166.115 7.91666C168.184 7.91666 170.115 7.74821 172.184 7.74821C180.185 7.57977 188.324 7.41134 196.325 7.2429C204.326 7.07446 212.189 6.90602 220.19 6.73758C222.259 6.73758 224.328 6.73758 226.535 6.73758C231.777 6.73758 236.881 6.73758 242.123 6.73758C250.262 6.73758 258.263 6.73758 266.402 6.56914C269.023 6.56914 271.644 6.56914 274.265 6.56914C279.783 6.56914 285.301 6.56914 290.819 6.56914C291.232 6.56914 291.784 6.56914 292.198 6.56914C279.783 6.73758 267.23 6.90602 254.814 7.2429C249.572 7.41134 244.468 7.41134 239.226 7.57978C237.019 7.57978 234.674 7.57977 232.467 7.74821C224.88 7.91665 217.431 8.25353 209.844 8.42197C201.153 8.75885 192.462 8.92729 183.772 9.26417C182.254 9.26417 180.875 9.43261 179.358 9.43261C174.667 9.76949 170.115 9.93793 165.425 10.2748C156.045 10.7801 146.664 11.2854 137.284 11.7908C135.904 11.7908 134.525 11.9592 133.145 12.1276C128.593 12.4645 123.903 12.9698 119.351 13.3067C111.074 13.9805 102.935 14.6542 94.6582 15.328C92.4511 15.4964 90.106 15.8333 87.8988 16.0017C82.6569 16.5071 77.4149 17.0124 72.1729 17.6861C65.5514 18.3599 58.7921 19.0337 52.1706 19.7074C42.9282 20.7181 33.5478 21.7287 24.3054 22.7393C22.0982 22.9078 19.8911 23.2446 17.546 23.4131C13.5455 23.9184 9.54506 24.4237 5.54461 24.929C5.13077 24.929 4.71693 25.2659 4.71693 25.9397C4.71693 26.445 5.13077 26.9503 5.54461 26.9503C7.06202 26.9503 8.44149 27.1188 9.9589 27.1188C9.82096 27.6241 9.68301 28.1294 9.68301 28.6347C9.68301 30.4876 10.9245 32.1719 12.5799 32.1719C24.0295 31.3297 35.3411 30.3191 46.7907 29.6453C56.7229 29.14 66.655 28.4663 76.5872 27.9609C87.485 27.2872 98.5207 26.6134 109.419 26.1081C112.867 25.9397 116.316 25.7712 119.765 25.4344C120.73 25.4344 121.696 25.2659 122.799 25.2659C140.457 24.7606 158.114 24.0868 175.771 23.5815C185.151 23.2446 194.67 22.9078 204.05 22.7393C207.499 22.5709 210.809 22.5709 214.258 22.4025C232.329 22.0656 250.4 21.7287 268.471 21.3918C276.196 21.2234 283.921 21.0549 291.646 20.8865C298.268 20.7181 304.889 20.7181 311.511 20.3812C317.028 20.2127 322.408 19.8759 327.926 19.7074C330.685 19.539 333.444 19.539 336.065 19.3705C342.273 18.8652 348.48 18.3599 354.688 17.8546C354.274 18.5283 354.274 19.539 354.412 20.2127C354.55 21.0549 354.964 21.7287 355.654 22.0656C356.205 22.4024 357.033 22.7393 357.585 22.4025C358.964 21.7287 360.344 21.0549 361.585 20.3812C361.585 20.3812 361.585 20.3812 361.447 20.3812C361.585 20.3812 361.585 20.2127 361.723 20.2127C361.861 20.2127 361.999 20.0443 361.999 20.0443H361.861C362.551 19.7074 363.241 19.3705 364.068 18.8652C364.758 18.5283 365.586 18.023 366.275 17.6861C367.103 17.1808 367.793 16.6755 368.621 16.1702C369.448 15.6649 370 14.3174 370 13.1383C370 12.4645 369.862 11.9592 369.586 11.2855C369.31 10.6117 368.621 9.7695 367.931 9.60106C367.241 9.43262 366.551 9.26417 365.862 9.26417C365.724 9.26417 365.586 9.26417 365.448 9.26417C365.034 9.26417 364.482 9.26417 364.068 9.43261C362.965 9.60105 361.999 9.76949 360.896 9.76949C360.068 9.76949 359.24 9.93793 358.275 9.93793C355.929 10.1064 353.722 10.2748 351.377 10.6117C350.825 10.6117 350.136 10.7801 349.584 10.7801C349.86 10.4432 349.998 10.1064 349.998 9.76949C350.136 9.43262 350.136 9.09574 350.136 8.75886C350.136 8.59042 350.136 8.25354 350.274 8.0851C350.274 7.74822 350.274 7.41134 350.136 7.2429C350.136 7.2429 350.274 7.24291 350.274 7.07447C350.687 6.73759 351.101 6.4007 351.377 5.72694C351.653 5.22163 351.791 4.54787 351.791 3.87411C351.791 3.20036 351.653 2.69504 351.377 2.02128C351.239 1.85284 351.101 1.51596 350.963 1.34752C350.549 0.842202 350.136 0.673763 349.722 0.505324C348.894 0.168445 347.928 0 346.963 0C346.135 0 345.445 0 344.618 0C343.514 0 342.411 0 341.307 0C339.79 0 338.134 0 336.617 0C332.478 0 328.34 0 324.202 0C320.339 0 316.339 0 312.476 0C308.89 0 305.441 0 301.854 0C287.646 0 273.575 0.168447 259.367 0.336887C248.745 0.505326 238.123 0.67376 227.501 0.67376C222.811 0.67376 217.983 0.842195 213.292 1.01063C202.671 1.34751 192.049 1.51595 181.427 1.85283C178.392 1.85283 175.357 2.02128 172.322 2.02128C170.529 2.02128 168.874 2.18972 167.08 2.18972C156.596 2.69504 146.112 3.20036 135.628 3.70568C132.456 3.87412 129.283 4.04255 125.972 4.21099C124.179 4.21099 122.386 4.37943 120.592 4.54787C110.108 5.22163 99.7623 5.89538 89.2783 6.56914C83.8984 6.90602 78.5184 7.24289 73.1385 7.74821C63.8961 8.42197 54.6537 9.09573 45.5492 9.93793C37.5483 10.6117 29.5473 11.117 21.5464 11.6223C20.3049 11.7908 19.0634 11.7908 17.6839 11.9592C15.6147 12.1276 13.5455 12.1276 11.4763 12.2961C9.68301 12.4645 7.8897 12.4645 5.95845 12.4645C5.8205 11.9592 5.26871 11.4539 4.85487 11.4539C3.61335 11.6223 2.50978 11.7908 1.26826 11.9592C0.716471 11.9592 0.164683 12.2961 0.0267362 13.1383C-0.111211 13.9805 0.302629 14.8227 0.854416 14.9911C1.4062 15.1596 1.82004 15.328 2.37183 15.4964C2.92362 15.6649 3.33746 15.6649 3.88925 15.6649C5.26871 16.3386 6.51023 16.3386 7.8897 16.5071ZM330.685 10.9486C332.341 10.9486 334.134 10.9486 335.789 10.9486C335.927 11.4539 336.203 11.7908 336.479 12.1276C335.789 12.1276 335.099 12.2961 334.548 12.2961C333.306 12.2961 332.065 12.4645 330.823 12.4645C325.305 12.633 319.925 12.9698 314.407 13.1383C311.924 13.3067 309.441 13.4752 306.958 13.4752C303.096 13.4752 299.095 13.6436 295.233 13.6436C286.266 13.812 277.438 13.9805 268.471 14.1489C251.09 14.4858 233.846 14.8227 216.465 15.1596C204.05 15.328 191.635 15.8333 179.22 16.3386C160.597 17.0124 141.836 17.5177 123.213 18.1915C119.489 18.3599 115.764 18.5283 112.04 18.8652C101.418 19.539 90.7957 20.0443 80.1738 20.7181C69.8278 21.3918 59.3438 21.8971 48.9978 22.5709C48.0322 22.5709 47.0666 22.7393 46.101 22.7393C48.8599 22.4025 51.7568 22.234 54.5157 21.8971C64.3099 21.0549 74.1041 20.0443 83.8984 19.2021C87.347 18.8652 90.7957 18.5283 94.1064 18.1915C95.8997 18.023 97.6931 17.8546 99.3484 17.8546C109.556 17.1808 119.765 16.3386 129.973 15.6649C131.904 15.4964 133.973 15.328 135.904 15.1596C138.801 14.9911 141.698 14.8227 144.457 14.8227C154.941 14.3174 165.425 13.812 175.909 13.3067C178.254 13.1383 180.599 13.1383 182.806 12.9698C183.358 12.9698 184.048 12.9698 184.6 12.9698C186.255 12.9698 187.91 12.9698 189.428 12.8014C199.912 12.4645 210.534 12.2961 221.017 11.9592C225.846 11.7908 230.674 11.6223 235.502 11.6223C251.09 11.4539 266.816 11.2854 282.404 11.117C298.819 11.117 314.821 11.117 330.685 10.9486Z" fill="#F26925"/>
</svg>
