<svg width="78" height="174" viewBox="0 0 78 174" fill="none" xmlns="http://www.w3.org/2000/svg">
<path d="M6 3C6 4.65685 4.65685 6 3 6C1.34315 6 0 4.65685 0 3C0 1.34315 1.34315 0 3 0C4.65685 0 6 1.34315 6 3Z" fill="white"/>
<path d="M6 27C6 28.6569 4.65685 30 3 30C1.34315 30 0 28.6569 0 27C0 25.3431 1.34315 24 3 24C4.65685 24 6 25.3431 6 27Z" fill="white"/>
<path d="M6 51C6 52.6569 4.65685 54 3 54C1.34315 54 0 52.6569 0 51C0 49.3431 1.34315 48 3 48C4.65685 48 6 49.3431 6 51Z" fill="white"/>
<path d="M6 75C6 76.6569 4.65685 78 3 78C1.34315 78 0 76.6569 0 75C0 73.3431 1.34315 72 3 72C4.65685 72 6 73.3431 6 75Z" fill="white"/>
<path d="M6 99C6 100.657 4.65685 102 3 102C1.34315 102 0 100.657 0 99C0 97.3431 1.34315 96 3 96C4.65685 96 6 97.3431 6 99Z" fill="white"/>
<path d="M6 123C6 124.657 4.65685 126 3 126C1.34315 126 0 124.657 0 123C0 121.343 1.34315 120 3 120C4.65685 120 6 121.343 6 123Z" fill="white"/>
<path d="M6 147C6 148.657 4.65685 150 3 150C1.34315 150 0 148.657 0 147C0 145.343 1.34315 144 3 144C4.65685 144 6 145.343 6 147Z" fill="white"/>
<path d="M6 171C6 172.657 4.65685 174 3 174C1.34315 174 0 172.657 0 171C0 169.343 1.34315 168 3 168C4.65685 168 6 169.343 6 171Z" fill="white"/>
<path d="M30 3C30 4.65685 28.6569 6 27 6C25.3431 6 24 4.65685 24 3C24 1.34315 25.3431 0 27 0C28.6569 0 30 1.34315 30 3Z" fill="white"/>
<path d="M30 27C30 28.6569 28.6569 30 27 30C25.3431 30 24 28.6569 24 27C24 25.3431 25.3431 24 27 24C28.6569 24 30 25.3431 30 27Z" fill="white"/>
<path d="M30 51C30 52.6569 28.6569 54 27 54C25.3431 54 24 52.6569 24 51C24 49.3431 25.3431 48 27 48C28.6569 48 30 49.3431 30 51Z" fill="white"/>
<path d="M30 75C30 76.6569 28.6569 78 27 78C25.3431 78 24 76.6569 24 75C24 73.3431 25.3431 72 27 72C28.6569 72 30 73.3431 30 75Z" fill="white"/>
<path d="M30 99C30 100.657 28.6569 102 27 102C25.3431 102 24 100.657 24 99C24 97.3431 25.3431 96 27 96C28.6569 96 30 97.3431 30 99Z" fill="white"/>
<path d="M30 123C30 124.657 28.6569 126 27 126C25.3431 126 24 124.657 24 123C24 121.343 25.3431 120 27 120C28.6569 120 30 121.343 30 123Z" fill="white"/>
<path d="M30 147C30 148.657 28.6569 150 27 150C25.3431 150 24 148.657 24 147C24 145.343 25.3431 144 27 144C28.6569 144 30 145.343 30 147Z" fill="white"/>
<path d="M30 171C30 172.657 28.6569 174 27 174C25.3431 174 24 172.657 24 171C24 169.343 25.3431 168 27 168C28.6569 168 30 169.343 30 171Z" fill="white"/>
<path d="M54 3C54 4.65685 52.6569 6 51 6C49.3431 6 48 4.65685 48 3C48 1.34315 49.3431 0 51 0C52.6569 0 54 1.34315 54 3Z" fill="white"/>
<path d="M54 27C54 28.6569 52.6569 30 51 30C49.3431 30 48 28.6569 48 27C48 25.3431 49.3431 24 51 24C52.6569 24 54 25.3431 54 27Z" fill="white"/>
<path d="M78 3C78 4.65685 76.6569 6 75 6C73.3431 6 72 4.65685 72 3C72 1.34315 73.3431 0 75 0C76.6569 0 78 1.34315 78 3Z" fill="white"/>
<path d="M78 27C78 28.6569 76.6569 30 75 30C73.3431 30 72 28.6569 72 27C72 25.3431 73.3431 24 75 24C76.6569 24 78 25.3431 78 27Z" fill="white"/>
</svg>
