<svg width="326" height="184" viewBox="0 0 326 184" fill="none" xmlns="http://www.w3.org/2000/svg">
<path d="M172.275 96.718C172.275 90.8733 167.536 86.1352 161.689 86.1352C155.843 86.1352 151.104 90.8733 151.104 96.718C151.104 102.563 155.843 107.301 161.689 107.301C165.197 107.301 168.041 110.144 168.041 113.651C168.041 117.157 165.197 120 161.689 120C148.827 120 138.4 109.577 138.4 96.718C138.4 83.8594 148.827 73.4358 161.689 73.4358C174.552 73.4358 184.979 83.8594 184.979 96.718C184.979 100.225 182.135 103.068 178.627 103.068C175.119 103.068 172.275 100.225 172.275 96.718Z" fill="#E53855"/>
<path fill-rule="evenodd" clip-rule="evenodd" d="M223.985 191.834C218.139 191.834 213.399 196.573 213.399 202.417C213.399 208.262 218.139 213 223.985 213C229.832 213 234.571 208.262 234.571 202.417C234.571 196.573 229.832 191.834 223.985 191.834ZM155.985 42.8344C150.139 42.8344 145.399 47.5725 145.399 53.4172C145.399 59.2623 150.139 64 155.985 64C161.832 64 166.571 59.2623 166.571 53.4172C166.571 47.5725 161.832 42.8344 155.985 42.8344Z" fill="#FFC735"/>
<path d="M202.39 31.2234C196.543 31.2234 191.804 26.4853 191.804 20.6405C191.804 14.7958 196.543 10.0577 202.39 10.0577C208.236 10.0577 212.976 14.7958 212.976 20.6405C212.976 24.1473 215.819 26.9903 219.327 26.9903C222.835 26.9903 225.679 24.1473 225.679 20.6405C225.679 7.78194 215.252 -2.64176 202.39 -2.64176C189.527 -2.64176 179.101 7.78194 179.101 20.6405C179.101 33.4992 189.527 43.9229 202.39 43.9229C205.897 43.9229 208.741 41.0799 208.741 37.5731C208.741 34.0664 205.897 31.2234 202.39 31.2234Z" fill="#44AB96"/>
<path fill-rule="evenodd" clip-rule="evenodd" d="M147.852 -47.5225C160.706 -47.5225 171.126 -37.0973 171.126 -24.2369V18.1006C171.126 30.9611 160.706 41.3862 147.852 41.3862C134.998 41.3862 124.578 30.9611 124.578 18.1006V4.55262H111.248C98.3941 4.55262 87.9736 -5.87255 87.9736 -18.733V-61.0705C87.9736 -66.9173 83.2371 -71.6548 77.3944 -71.6548H57.9286C52.0859 -71.6548 47.3494 -66.9173 47.3494 -61.0705C47.3494 -57.5649 44.5074 -54.7198 41.0018 -54.7198C37.4962 -54.7198 34.6543 -57.5649 34.6543 -61.0705C34.6543 -73.9326 45.0744 -84.3561 57.9286 -84.3561H77.3944C84.0635 -84.3561 90.078 -81.5491 94.3211 -77.0529C98.5647 -81.5491 104.579 -84.3561 111.248 -84.3561H130.29C133.796 -84.3561 136.638 -81.511 136.638 -78.0055C136.638 -74.4999 133.796 -71.6548 130.29 -71.6548H111.248C105.405 -71.6548 100.669 -66.9173 100.669 -61.0705V-18.733C100.669 -12.8875 105.405 -8.14862 111.248 -8.14862H124.578V-24.2369C124.578 -37.0973 134.998 -47.5225 147.852 -47.5225ZM137.273 18.1007C137.273 23.9462 142.009 28.685 147.852 28.685C153.695 28.685 158.431 23.9462 158.431 18.1007V-24.2367C158.431 -30.0823 153.695 -34.8211 147.852 -34.8211C142.009 -34.8211 137.273 -30.0823 137.273 -24.2367V18.1007Z" fill="#8950FC"/>
<path fill-rule="evenodd" clip-rule="evenodd" d="M206.634 181.435C206.634 162.735 191.47 147.575 172.765 147.575C169.257 147.575 166.414 144.733 166.414 141.226C166.414 137.72 169.257 134.878 172.765 134.878C198.485 134.878 219.335 155.722 219.335 181.435C219.335 184.941 216.492 187.784 212.985 187.784C209.478 187.784 206.634 184.941 206.634 181.435Z" fill="#44AB96"/>
<path fill-rule="evenodd" clip-rule="evenodd" d="M219.698 43.198C223.201 43.198 226.041 40.3587 226.041 36.8565C226.041 33.3543 223.201 30.515 219.698 30.515C216.195 30.515 213.354 33.3543 213.354 36.8565C213.354 40.3587 216.195 43.198 219.698 43.198Z" fill="#FD6234"/>
<path fill-rule="evenodd" clip-rule="evenodd" d="M219.698 60.0483C223.201 60.0483 226.041 57.209 226.041 53.7069C226.041 50.2047 223.201 47.3654 219.698 47.3654C216.195 47.3654 213.354 50.2047 213.354 53.7069C213.354 57.209 216.195 60.0483 219.698 60.0483Z" fill="#FD6234"/>
<path fill-rule="evenodd" clip-rule="evenodd" d="M335.344 -7.62443C335.344 -1.77974 340.083 2.95841 345.93 2.95841C351.776 2.95841 356.516 -1.77974 356.516 -7.62443C356.516 -13.4691 351.776 -18.2073 345.93 -18.2073C340.083 -18.2073 335.344 -13.4691 335.344 -7.62443ZM345.93 15.658C333.067 15.658 322.641 5.23426 322.641 -7.62435C322.641 -20.4829 333.067 -30.9067 345.93 -30.9067C358.792 -30.9067 369.219 -20.4829 369.219 -7.62435C369.219 5.23426 358.792 15.658 345.93 15.658Z" fill="#FFC735"/>
<path d="M304.88 119.293C304.88 115.789 307.727 112.948 311.239 112.948C317.093 112.948 321.839 108.214 321.839 102.374V60.0763C321.839 54.2363 317.093 49.502 311.239 49.502C307.727 49.502 304.88 46.6613 304.88 43.1574C304.88 39.6535 307.727 36.8128 311.239 36.8128C319.045 36.8128 325.954 40.6386 330.186 46.5128C335.657 45.0223 339.645 40.0003 339.645 33.852V9.31952C339.645 5.81561 342.493 2.97491 346.005 2.97491C349.517 2.97491 352.364 5.81561 352.364 9.31952V33.852C352.364 45.3277 344.992 55.1846 334.504 58.4804C334.539 59.0079 334.558 59.54 334.558 60.0763V102.374C334.558 115.222 324.118 125.637 311.239 125.637C307.727 125.637 304.88 122.797 304.88 119.293Z" fill="#E5E0D5"/>
<path fill-rule="evenodd" clip-rule="evenodd" d="M229.122 171.386C229.122 158.528 239.535 148.104 252.381 148.104H294.67C307.515 148.104 317.929 158.528 317.929 171.386C317.929 184.245 307.515 194.669 294.67 194.669H252.381C239.535 194.669 229.122 184.245 229.122 171.386ZM252.381 160.804C246.542 160.804 241.809 165.542 241.809 171.386C241.809 177.231 246.542 181.969 252.381 181.969H294.67C300.508 181.969 305.242 177.231 305.242 171.386C305.242 165.542 300.508 160.804 294.67 160.804H252.381Z" fill="#44AB96"/>
<path fill-rule="evenodd" clip-rule="evenodd" d="M317.567 119.296C317.567 115.794 314.722 112.954 311.214 112.954C305.367 112.954 300.626 108.222 300.626 102.385V60.1087C300.626 54.2715 305.367 49.5395 311.214 49.5395C314.722 49.5395 317.567 46.7003 317.567 43.1981C317.567 39.6959 314.722 36.8566 311.214 36.8566C304.54 36.8566 298.521 39.6591 294.274 44.1497C290.027 39.6591 284.008 36.8566 277.334 36.8566H257.852C244.988 36.8566 234.56 47.2668 234.56 60.1087C234.56 63.6108 237.404 66.4501 240.912 66.4501C244.42 66.4501 247.265 63.6108 247.265 60.1087C247.265 54.2715 252.005 49.5395 257.852 49.5395H277.334C283.181 49.5395 287.921 54.2715 287.921 60.1087V102.385C287.921 102.385 287.921 102.385 287.921 102.385C287.921 115.227 298.35 125.637 311.214 125.637C314.722 125.637 317.567 122.798 317.567 119.296Z" fill="#44AB96"/>
<path fill-rule="evenodd" clip-rule="evenodd" d="M311.133 36.8401C316.979 36.8401 321.719 32.102 321.719 26.2572C321.719 20.4125 316.979 15.6744 311.133 15.6744C305.286 15.6744 300.547 20.4125 300.547 26.2572C300.547 29.764 297.703 32.607 294.195 32.607C290.688 32.607 287.844 29.764 287.844 26.2572C287.844 13.3986 298.27 2.97494 311.133 2.97494C323.995 2.97494 334.422 13.3986 334.422 26.2572C334.422 39.1159 323.995 49.5396 311.133 49.5396C307.625 49.5396 304.781 46.6966 304.781 43.1898C304.781 39.6831 307.625 36.8401 311.133 36.8401Z" fill="#463C74"/>
<path fill-rule="evenodd" clip-rule="evenodd" d="M259.117 90.8661C253.271 90.8661 248.531 95.6043 248.531 101.449C248.531 107.294 253.271 112.032 259.117 112.032C264.964 112.032 269.703 107.294 269.703 101.449C269.703 97.9422 272.547 95.0992 276.055 95.0992C279.562 95.0992 282.406 97.9422 282.406 101.449C282.406 114.308 271.979 124.731 259.117 124.731C246.255 124.731 235.828 114.308 235.828 101.449C235.828 88.5904 246.255 78.1667 259.117 78.1667C262.625 78.1667 265.469 81.0097 265.469 84.5164C265.469 88.0231 262.625 90.8661 259.117 90.8661Z" fill="#E53855"/>
<path fill-rule="evenodd" clip-rule="evenodd" d="M293.443 177.637C285.635 177.637 279.357 183.912 279.357 191.588C279.357 199.265 285.635 205.54 293.443 205.54C297.756 205.54 301.605 203.628 304.195 200.602C306.475 197.938 310.489 197.621 313.16 199.895C315.832 202.168 316.149 206.171 313.869 208.835C308.958 214.573 301.623 218.223 293.443 218.223C278.667 218.223 266.639 206.326 266.639 191.588C266.639 176.851 278.667 164.954 293.443 164.954C296.955 164.954 299.802 167.794 299.802 171.296C299.802 174.798 296.955 177.637 293.443 177.637Z" fill="#FD6234"/>
<path fill-rule="evenodd" clip-rule="evenodd" d="M311.041 36.8566C314.545 36.8566 317.385 39.6959 317.385 43.1981C317.385 46.7003 314.545 49.5396 311.041 49.5396C307.538 49.5396 304.698 46.7003 304.698 43.1981C304.698 39.6959 307.538 36.8566 311.041 36.8566Z" fill="#FD6234"/>
<path fill-rule="evenodd" clip-rule="evenodd" d="M311.223 112.954C314.726 112.954 317.567 115.794 317.567 119.296C317.567 122.798 314.726 125.637 311.223 125.637C307.72 125.637 304.88 122.798 304.88 119.296C304.88 115.794 307.72 112.954 311.223 112.954Z" fill="#FD6234"/>
<path fill-rule="evenodd" clip-rule="evenodd" d="M317.583 72.7183C317.583 78.5435 322.323 83.2658 328.169 83.2658C334.015 83.2658 338.755 78.5435 338.755 72.7183C338.755 69.2232 341.599 66.3897 345.106 66.3897C348.614 66.3897 351.458 69.2232 351.458 72.7183C351.458 85.5339 341.031 95.9229 328.169 95.9229C315.307 95.9229 304.88 85.5339 304.88 72.7183C304.88 69.2232 307.724 66.3897 311.231 66.3897C314.739 66.3897 317.583 69.2232 317.583 72.7183Z" fill="#FFC735"/>
<path fill-rule="evenodd" clip-rule="evenodd" d="M204.111 59.6973C204.111 67.7658 210.808 74.5205 219.335 74.5205C227.863 74.5205 234.559 67.7658 234.559 59.6973C234.559 56.1888 237.399 53.3445 240.903 53.3445C244.406 53.3445 247.246 56.1888 247.246 59.6973C247.246 75.019 234.631 87.2261 219.335 87.2261C204.04 87.2261 191.425 75.019 191.425 59.6973C191.425 56.1888 194.265 53.3445 197.768 53.3445C201.271 53.3445 204.111 56.1888 204.111 59.6973Z" fill="#FFB017"/>
<path fill-rule="evenodd" clip-rule="evenodd" d="M282.43 101.544C282.43 117.667 295.518 130.736 311.663 130.736C324.533 130.736 334.965 141.154 334.965 154.006C334.965 166.857 324.533 177.275 311.663 177.275C308.154 177.275 305.308 174.434 305.308 170.929C305.308 167.424 308.154 164.583 311.663 164.583C317.513 164.583 322.255 159.847 322.255 154.006C322.255 148.164 317.513 143.429 311.663 143.429C288.499 143.429 269.72 124.676 269.72 101.544C269.72 98.0395 272.565 95.1981 276.075 95.1981C279.585 95.1981 282.43 98.0395 282.43 101.544Z" fill="#FFB017"/>
<path d="M229.122 170.028C229.122 143.41 207.538 121.832 180.913 121.832C177.409 121.832 174.569 118.993 174.569 115.491C174.569 111.989 177.409 109.15 180.913 109.15C214.545 109.15 241.809 136.406 241.809 170.028C241.809 173.53 238.968 176.369 235.465 176.369C231.962 176.369 229.122 173.53 229.122 170.028Z" fill="#8950FC"/>
<path d="M16.1936 -16.9425C16.1936 5.75146 34.5959 24.1482 57.2963 24.1482C60.8065 24.1482 63.6524 26.9932 63.6524 30.5025C63.6524 34.0117 60.8065 36.8567 57.2963 36.8567C27.5752 36.8567 3.48145 12.7699 3.48145 -16.9425C3.48145 -20.4517 6.32715 -23.2967 9.83753 -23.2967C13.3479 -23.2967 16.1936 -20.4517 16.1936 -16.9425Z" fill="#E53855"/>
<path fill-rule="evenodd" clip-rule="evenodd" d="M306.51 -5.90289C290.395 -5.90289 277.331 7.15717 277.331 23.2679C277.331 26.7701 274.491 29.6094 270.988 29.6094C267.485 29.6094 264.645 26.7701 264.645 23.2679C264.645 0.152796 283.389 -18.5858 306.51 -18.5858C310.014 -18.5858 312.854 -15.7466 312.854 -12.2444C312.854 -8.74218 310.014 -5.90289 306.51 -5.90289Z" fill="#FD6234"/>
<path fill-rule="evenodd" clip-rule="evenodd" d="M311.223 66.3899C314.726 66.3899 317.567 69.2292 317.567 72.7313C317.567 76.2335 314.726 79.0728 311.223 79.0728C307.72 79.0728 304.88 76.2335 304.88 72.7313C304.88 69.2292 307.72 66.3899 311.223 66.3899Z" fill="#FD6234"/>
<path fill-rule="evenodd" clip-rule="evenodd" d="M276.063 95.017C279.566 95.017 282.406 97.8563 282.406 101.358C282.406 104.861 279.566 107.7 276.063 107.7C272.56 107.7 269.72 104.861 269.72 101.358C269.72 97.8563 272.56 95.017 276.063 95.017Z" fill="#FD6234"/>
<path fill-rule="evenodd" clip-rule="evenodd" d="M214.744 96.3173C218.247 96.3173 221.087 99.1566 221.087 102.659C221.087 106.161 218.247 109 214.744 109C211.241 109 208.4 106.161 208.4 102.659C208.4 99.1566 211.241 96.3173 214.744 96.3173Z" fill="#FD6234"/>
<path fill-rule="evenodd" clip-rule="evenodd" d="M240.903 53.3445C244.406 53.3445 247.246 56.1838 247.246 59.6859C247.246 63.1881 244.406 66.0273 240.903 66.0273C237.4 66.0273 234.56 63.1881 234.56 59.6859C234.56 56.1838 237.4 53.3445 240.903 53.3445Z" fill="#FD6234"/>
<path fill-rule="evenodd" clip-rule="evenodd" d="M270.744 61.3173C274.247 61.3173 277.087 64.1566 277.087 67.6588C277.087 71.161 274.247 74.0002 270.744 74.0002C267.241 74.0002 264.4 71.161 264.4 67.6588C264.4 64.1566 267.241 61.3173 270.744 61.3173Z" fill="#44AB96"/>
<path fill-rule="evenodd" clip-rule="evenodd" d="M235.465 164.954C238.969 164.954 241.809 167.794 241.809 171.296C241.809 174.798 238.969 177.637 235.465 177.637C231.962 177.637 229.122 174.798 229.122 171.296C229.122 167.794 231.962 164.954 235.465 164.954Z" fill="#FD6234"/>
<path fill-rule="evenodd" clip-rule="evenodd" d="M311.586 164.592C315.089 164.592 317.929 167.431 317.929 170.933C317.929 174.436 315.089 177.275 311.586 177.275C308.082 177.275 305.242 174.436 305.242 170.933C305.242 167.431 308.082 164.592 311.586 164.592Z" fill="#FD6234"/>
<path fill-rule="evenodd" clip-rule="evenodd" d="M244.709 18.1947C244.709 -4.21992 226.533 -22.3908 204.112 -22.3908C200.609 -22.3908 197.769 -25.2301 197.769 -28.7323C197.769 -32.2344 200.609 -35.0737 204.112 -35.0737C233.54 -35.0737 257.396 -11.2247 257.396 18.1947C257.396 21.6968 254.556 24.5361 251.052 24.5361C247.549 24.5361 244.709 21.6968 244.709 18.1947Z" fill="#B4D51E"/>
<path fill-rule="evenodd" clip-rule="evenodd" d="M57.2178 -27.4476C51.3714 -27.4476 46.6318 -22.7094 46.6318 -16.8648C46.6318 -11.0201 51.3714 -6.28192 57.2178 -6.28192C63.0642 -6.28192 67.8037 -11.0201 67.8037 -16.8648C67.8037 -20.3715 70.6475 -23.2145 74.1553 -23.2145C77.663 -23.2145 80.5068 -20.3715 80.5068 -16.8648C80.5068 -4.00619 70.0801 6.41748 57.2178 6.41748C44.3554 6.41748 33.9287 -4.00619 33.9287 -16.8648C33.9287 -29.7233 44.3554 -40.147 57.2178 -40.147C60.7255 -40.147 63.5693 -37.3023 63.5693 -33.7973C63.5693 -30.2906 60.7255 -27.4476 57.2178 -27.4476Z" fill="#463C74"/>
<path fill-rule="evenodd" clip-rule="evenodd" d="M136.407 72.6585C136.407 69.1563 133.563 66.3171 130.055 66.3171C124.207 66.3171 119.467 61.5851 119.467 55.7479V13.4715C119.467 7.63434 124.207 2.90234 130.055 2.90234C133.563 2.90234 136.407 0.0630493 136.407 -3.43913C136.407 -6.94131 133.563 -9.78061 130.055 -9.78061C123.38 -9.78061 117.361 -6.9781 113.115 -2.4875C108.868 -6.9781 102.849 -9.78061 96.1744 -9.78061H76.6932C63.8288 -9.78061 53.4004 0.629555 53.4004 13.4715C53.4004 16.9736 56.2446 19.8129 59.753 19.8129C63.2613 19.8129 66.1055 16.9736 66.1055 13.4715C66.1055 7.63434 70.8458 2.90234 76.6932 2.90234H96.1744C102.022 2.90234 106.762 7.63434 106.762 13.4715V55.7475C106.762 55.7479 106.762 55.7475 106.762 55.7475C106.762 68.5894 117.19 79 130.055 79C133.563 79 136.407 76.1607 136.407 72.6585Z" fill="#44AB96"/>
</svg>
