<svg width="342" height="78" viewBox="0 0 342 78" fill="none" xmlns="http://www.w3.org/2000/svg">
<path d="M6 51C6 52.6569 4.65685 54 3 54C1.34315 54 0 52.6569 0 51C0 49.3431 1.34315 48 3 48C4.65685 48 6 49.3431 6 51Z" fill="white"/>
<path d="M6 75C6 76.6569 4.65685 78 3 78C1.34315 78 0 76.6569 0 75C0 73.3431 1.34315 72 3 72C4.65685 72 6 73.3431 6 75Z" fill="white"/>
<path d="M30 51C30 52.6569 28.6569 54 27 54C25.3431 54 24 52.6569 24 51C24 49.3431 25.3431 48 27 48C28.6569 48 30 49.3431 30 51Z" fill="white"/>
<path d="M30 75C30 76.6569 28.6569 78 27 78C25.3431 78 24 76.6569 24 75C24 73.3431 25.3431 72 27 72C28.6569 72 30 73.3431 30 75Z" fill="white"/>
<path d="M54 51C54 52.6569 52.6569 54 51 54C49.3431 54 48 52.6569 48 51C48 49.3431 49.3431 48 51 48C52.6569 48 54 49.3431 54 51Z" fill="white"/>
<path d="M54 75C54 76.6569 52.6569 78 51 78C49.3431 78 48 76.6569 48 75C48 73.3431 49.3431 72 51 72C52.6569 72 54 73.3431 54 75Z" fill="white"/>
<path d="M78 51C78 52.6569 76.6569 54 75 54C73.3431 54 72 52.6569 72 51C72 49.3431 73.3431 48 75 48C76.6569 48 78 49.3431 78 51Z" fill="white"/>
<path d="M78 75C78 76.6569 76.6569 78 75 78C73.3431 78 72 76.6569 72 75C72 73.3431 73.3431 72 75 72C76.6569 72 78 73.3431 78 75Z" fill="white"/>
<path d="M102 51C102 52.6569 100.657 54 99 54C97.3431 54 96 52.6569 96 51C96 49.3431 97.3431 48 99 48C100.657 48 102 49.3431 102 51Z" fill="white"/>
<path d="M102 75C102 76.6569 100.657 78 99 78C97.3431 78 96 76.6569 96 75C96 73.3431 97.3431 72 99 72C100.657 72 102 73.3431 102 75Z" fill="white"/>
<path d="M126 51C126 52.6569 124.657 54 123 54C121.343 54 120 52.6569 120 51C120 49.3431 121.343 48 123 48C124.657 48 126 49.3431 126 51Z" fill="white"/>
<path d="M126 75C126 76.6569 124.657 78 123 78C121.343 78 120 76.6569 120 75C120 73.3431 121.343 72 123 72C124.657 72 126 73.3431 126 75Z" fill="white"/>
<path d="M150 51C150 52.6569 148.657 54 147 54C145.343 54 144 52.6569 144 51C144 49.3431 145.343 48 147 48C148.657 48 150 49.3431 150 51Z" fill="white"/>
<path d="M150 75C150 76.6569 148.657 78 147 78C145.343 78 144 76.6569 144 75C144 73.3431 145.343 72 147 72C148.657 72 150 73.3431 150 75Z" fill="white"/>
<path d="M174 51C174 52.6569 172.657 54 171 54C169.343 54 168 52.6569 168 51C168 49.3431 169.343 48 171 48C172.657 48 174 49.3431 174 51Z" fill="white"/>
<path d="M174 75C174 76.6569 172.657 78 171 78C169.343 78 168 76.6569 168 75C168 73.3431 169.343 72 171 72C172.657 72 174 73.3431 174 75Z" fill="white"/>
<path d="M198 51C198 52.6569 196.657 54 195 54C193.343 54 192 52.6569 192 51C192 49.3431 193.343 48 195 48C196.657 48 198 49.3431 198 51Z" fill="white"/>
<path d="M198 75C198 76.6569 196.657 78 195 78C193.343 78 192 76.6569 192 75C192 73.3431 193.343 72 195 72C196.657 72 198 73.3431 198 75Z" fill="white"/>
<path d="M222 51C222 52.6569 220.657 54 219 54C217.343 54 216 52.6569 216 51C216 49.3431 217.343 48 219 48C220.657 48 222 49.3431 222 51Z" fill="white"/>
<path d="M222 75C222 76.6569 220.657 78 219 78C217.343 78 216 76.6569 216 75C216 73.3431 217.343 72 219 72C220.657 72 222 73.3431 222 75Z" fill="white"/>
<path d="M246 51C246 52.6569 244.657 54 243 54C241.343 54 240 52.6569 240 51C240 49.3431 241.343 48 243 48C244.657 48 246 49.3431 246 51Z" fill="white"/>
<path d="M246 75C246 76.6569 244.657 78 243 78C241.343 78 240 76.6569 240 75C240 73.3431 241.343 72 243 72C244.657 72 246 73.3431 246 75Z" fill="white"/>
<path d="M270 51C270 52.6569 268.657 54 267 54C265.343 54 264 52.6569 264 51C264 49.3431 265.343 48 267 48C268.657 48 270 49.3431 270 51Z" fill="white"/>
<path d="M270 75C270 76.6569 268.657 78 267 78C265.343 78 264 76.6569 264 75C264 73.3431 265.343 72 267 72C268.657 72 270 73.3431 270 75Z" fill="white"/>
<path d="M294 51C294 52.6569 292.657 54 291 54C289.343 54 288 52.6569 288 51C288 49.3431 289.343 48 291 48C292.657 48 294 49.3431 294 51Z" fill="white"/>
<path d="M294 75C294 76.6569 292.657 78 291 78C289.343 78 288 76.6569 288 75C288 73.3431 289.343 72 291 72C292.657 72 294 73.3431 294 75Z" fill="white"/>
<path d="M318 3C318 4.65685 316.657 6 315 6C313.343 6 312 4.65685 312 3C312 1.34315 313.343 0 315 0C316.657 0 318 1.34315 318 3Z" fill="white"/>
<path d="M318 27C318 28.6569 316.657 30 315 30C313.343 30 312 28.6569 312 27C312 25.3431 313.343 24 315 24C316.657 24 318 25.3431 318 27Z" fill="white"/>
<path d="M318 51C318 52.6569 316.657 54 315 54C313.343 54 312 52.6569 312 51C312 49.3431 313.343 48 315 48C316.657 48 318 49.3431 318 51Z" fill="white"/>
<path d="M318 75C318 76.6569 316.657 78 315 78C313.343 78 312 76.6569 312 75C312 73.3431 313.343 72 315 72C316.657 72 318 73.3431 318 75Z" fill="white"/>
<path d="M342 3C342 4.65685 340.657 6 339 6C337.343 6 336 4.65685 336 3C336 1.34315 337.343 0 339 0C340.657 0 342 1.34315 342 3Z" fill="white"/>
<path d="M342 27C342 28.6569 340.657 30 339 30C337.343 30 336 28.6569 336 27C336 25.3431 337.343 24 339 24C340.657 24 342 25.3431 342 27Z" fill="white"/>
<path d="M342 51C342 52.6569 340.657 54 339 54C337.343 54 336 52.6569 336 51C336 49.3431 337.343 48 339 48C340.657 48 342 49.3431 342 51Z" fill="white"/>
<path d="M342 75C342 76.6569 340.657 78 339 78C337.343 78 336 76.6569 336 75C336 73.3431 337.343 72 339 72C340.657 72 342 73.3431 342 75Z" fill="white"/>
</svg>
