<svg width="61" height="61" viewBox="0 0 61 61" fill="none" xmlns="http://www.w3.org/2000/svg">
<path d="M45.5 20.5H48C50.6522 20.5 53.1957 21.5536 55.0711 23.4289C56.9464 25.3043 58 27.8478 58 30.5C58 33.1522 56.9464 35.6957 55.0711 37.5711C53.1957 39.4464 50.6522 40.5 48 40.5H45.5M45.5 20.5H5.5V43C5.5 45.6522 6.55357 48.1957 8.42893 50.0711C10.3043 51.9464 12.8478 53 15.5 53H35.5C38.1522 53 40.6957 51.9464 42.5711 50.0711C44.4464 48.1957 45.5 45.6522 45.5 43V20.5ZM15.5 3V10.5M25.5 3V10.5M35.5 3V10.5" stroke="#525558" stroke-width="4" stroke-linecap="round" stroke-linejoin="round"/>
</svg>
